<svg width="64" height="64" viewBox="0 0 64 64" fill="none" xmlns="http://www.w3.org/2000/svg">
<path fill-rule="evenodd" clip-rule="evenodd" d="M32 0.0556641C14.32 0.0556641 0 14.5085 0 32.3524C0 46.6437 9.16 58.7146 21.88 62.994C23.48 63.2766 24.08 62.3077 24.08 61.4599C24.08 60.6928 24.04 58.1495 24.04 55.4446C16 56.9383 13.92 53.4664 13.28 51.6497C12.92 50.7212 11.36 47.8549 10 47.0878C8.88 46.4822 7.28 44.9885 9.96 44.9482C12.48 44.9078 14.28 47.2897 14.88 48.2586C17.76 53.1435 22.36 51.7708 24.2 50.9231C24.48 48.8238 25.32 47.4108 26.24 46.6034C19.12 45.7959 11.68 43.0103 11.68 30.6568C11.68 27.1446 12.92 24.2379 14.96 21.9771C14.64 21.1697 13.52 17.8592 15.28 13.4184C15.28 13.4184 17.96 12.5707 24.08 16.7289C26.64 16.0022 29.36 15.6388 32.08 15.6388C34.8 15.6388 37.52 16.0022 40.08 16.7289C46.2 12.5303 48.88 13.4184 48.88 13.4184C50.64 17.8592 49.52 21.1697 49.2 21.9771C51.24 24.2379 52.48 27.1042 52.48 30.6568C52.48 43.0507 45 45.7959 37.88 46.6034C39.04 47.6126 40.04 49.5504 40.04 52.5783C40.04 56.898 40 60.3699 40 61.4599C40 62.3077 40.6 63.3169 42.2 62.994C54.84 58.7146 64 46.6034 64 32.3524C64 14.5085 49.68 0.0556641 32 0.0556641Z" fill="#4A5568"/>
</svg>
