<svg width="64" height="72" viewBox="0 0 64 72" fill="none" xmlns="http://www.w3.org/2000/svg">
<rect x="8.65601" y="8.40625" width="46.8016" height="52.2542" fill="#070A14"/>
<path fill-rule="evenodd" clip-rule="evenodd" d="M51.3248 21.3333H51.2994H20.6648L21.3974 28.4444H50.5958C50.1679 34.6738 48.8731 47.8714 48.398 53.8767L31.9982 58.4931V58.5069L31.9619 58.5243L15.5512 52.75L14.4269 39.1111H22.4709L23.0403 46.4462L31.9764 49.7778H31.9982L40.9198 46.5781L41.8374 35.5556H14.0679C13.9337 34.1298 12.2074 15.616 11.9064 14.2222H52.0428C51.818 16.5689 51.5895 18.9796 51.3248 21.3333ZM0 0L5.82445 64.526L31.9619 71.1111L58.1683 64.3941L64 0H0Z" fill="#4A5568"/>
</svg>
