<svg width="57" height="56" viewBox="0 0 57 56" fill="none" xmlns="http://www.w3.org/2000/svg">
<path fill-rule="evenodd" clip-rule="evenodd" d="M28.5 0C13.036 0 0.5 12.536 0.5 28C0.5 43.464 13.036 56 28.5 56C43.964 56 56.5 43.464 56.5 28C56.5 12.536 43.964 0 28.5 0ZM13.9419 23.1908H20.2873V42.2562H13.9419V23.1908ZM20.7052 17.2931C20.664 15.4238 19.3273 14 17.1565 14C14.9858 14 13.5667 15.4238 13.5667 17.2931C13.5667 19.1238 14.9439 20.5886 17.0742 20.5886H17.1147C19.3273 20.5886 20.7052 19.1238 20.7052 17.2931ZM35.8653 22.7431C40.0409 22.7431 43.1713 25.4686 43.1713 31.3247L43.171 42.2562H36.8259V32.0562C36.8259 29.4942 35.9077 27.7459 33.6106 27.7459C31.8575 27.7459 30.8134 28.9245 30.3548 30.0628C30.187 30.4708 30.1458 31.0392 30.1458 31.609V42.2567H23.7996C23.7996 42.2567 23.8833 24.9803 23.7996 23.1913H30.1458V25.8918C30.988 24.5936 32.4963 22.7431 35.8653 22.7431Z" fill="#3A86FF"/>
</svg>
