<svg width="57" height="56" viewBox="0 0 57 56" fill="none" xmlns="http://www.w3.org/2000/svg">
<path fill-rule="evenodd" clip-rule="evenodd" d="M28.5 0.5C13.03 0.5 0.5 13.1175 0.5 28.6956C0.5 41.1721 8.515 51.7102 19.645 55.4461C21.045 55.6929 21.57 54.847 21.57 54.1068C21.57 53.4372 21.535 51.2168 21.535 48.8554C14.5 50.1595 12.68 47.1284 12.12 45.5424C11.805 44.7318 10.44 42.2295 9.25 41.5598C8.27 41.0311 6.87 39.7271 9.215 39.6919C11.42 39.6566 12.995 41.736 13.52 42.5819C16.04 46.8465 20.065 45.6482 21.675 44.908C21.92 43.0753 22.655 41.8418 23.46 41.1369C17.23 40.432 10.72 38.0001 10.72 27.2153C10.72 24.149 11.805 21.6114 13.59 19.6378C13.31 18.9329 12.33 16.0428 13.87 12.1659C13.87 12.1659 16.215 11.4258 21.57 15.056C23.81 14.4216 26.19 14.1044 28.57 14.1044C30.95 14.1044 33.33 14.4216 35.57 15.056C40.925 11.3905 43.27 12.1659 43.27 12.1659C44.81 16.0428 43.83 18.9329 43.55 19.6378C45.335 21.6114 46.42 24.1138 46.42 27.2153C46.42 38.0354 39.875 40.432 33.645 41.1369C34.66 42.018 35.535 43.7097 35.535 46.3531C35.535 50.1242 35.5 53.1553 35.5 54.1068C35.5 54.847 36.025 55.7281 37.425 55.4461C48.485 51.7102 56.5 41.1369 56.5 28.6956C56.5 13.1175 43.97 0.5 28.5 0.5Z" fill="#3A86FF"/>
</svg>
