<svg width="64" height="65" viewBox="0 0 64 65" fill="none" xmlns="http://www.w3.org/2000/svg">
<path d="M0 8.55566C0 4.13739 3.58172 0.555664 8 0.555664H56C60.4183 0.555664 64 4.13739 64 8.55566V56.5557C64 60.9739 60.4183 64.5557 56 64.5557H8C3.58172 64.5557 0 60.9739 0 56.5557V8.55566Z" fill="#4A5568"/>
<path d="M16.828 54.039L17.2322 53.7944C19.6912 52.3062 22.7175 54.1677 25.5918 54.1677C27.568 54.1677 28.8143 53.3947 28.8143 50.3877V32.9454C28.8143 31.2846 30.1606 29.9382 31.8214 29.9382C33.4822 29.9382 34.8285 31.2846 34.8285 32.9454V50.4727C34.8285 56.702 31.177 59.5375 25.8495 59.5375C21.0383 59.5375 18.2455 57.0457 16.8278 54.0385M38.0953 53.3945C40.8191 51.8174 44.1999 53.2981 47.2619 54.0267C47.7665 54.1468 48.317 54.211 48.921 54.211C51.4133 54.211 53.0023 52.965 53.0023 51.2465C53.0023 49.1845 51.3698 48.454 48.6203 47.2515L47.117 46.6065C42.7778 44.7597 39.8995 42.4397 39.8995 37.5422C39.8995 33.0312 43.3363 29.5942 48.7065 29.5942C51.6263 29.5942 53.9198 30.371 55.7208 32.2878C56.7275 33.3592 56.287 35.028 55.0499 35.8225C53.7071 36.6848 52.0257 36.0175 50.6182 35.2653C50.0638 34.9691 49.4399 34.836 48.7063 34.836C46.9448 34.836 45.8278 35.953 45.8278 37.4135C45.8278 39.2177 46.9448 39.9485 49.5223 41.0655L51.0258 41.7097C56.1383 43.901 59.0165 46.1347 59.0165 51.1607C59.0165 56.5742 54.7635 59.5382 49.0498 59.5382C43.465 59.5382 39.8563 56.8747 38.095 53.3947" fill="#070A14"/>
</svg>
