<svg width="64" height="57" viewBox="0 0 64 57" fill="none" xmlns="http://www.w3.org/2000/svg">
<path d="M37.715 28.504C37.715 25.444 35.1565 22.9629 32 22.9629C28.844 22.9629 26.285 25.444 26.285 28.504C26.285 31.5645 28.844 34.0453 32 34.0453C35.1565 34.0453 37.715 31.5645 37.715 28.504Z" fill="#4A5568"/>
<path fill-rule="evenodd" clip-rule="evenodd" d="M50.5609 18.2168C51.7677 13.4618 53.2847 4.64409 47.9369 1.6546C42.614 -1.32184 35.6873 4.38158 32.0297 7.80505C28.3827 4.41569 21.2614 -1.26335 15.9181 1.73563C10.5974 4.72206 12.2382 13.3936 13.4718 18.1784C8.5084 19.5453 0 22.4893 0 28.5042C0 34.5021 8.49954 37.705 13.4336 39.0706C12.1954 43.8819 10.6367 52.4295 15.9643 55.4094C21.3276 58.4078 28.4267 52.8639 32.1182 49.403C35.7993 52.8466 42.6594 58.4267 47.9834 55.4386C53.324 52.441 51.933 43.7415 50.6993 38.9289C55.4822 37.5604 64 34.4272 64 28.5042C64 22.5471 55.446 19.5792 50.5609 18.2168ZM49.9546 36.3785C49.1445 33.8923 48.0512 31.2485 46.7138 28.5174C47.9904 25.8507 49.0413 23.241 49.8287 20.7709C53.4099 21.7776 61.2661 24.0784 61.2661 28.5042C61.2661 32.9716 53.7271 35.2942 49.9546 36.3785ZM46.6133 53.1444C42.6411 55.3737 36.7405 50.0374 34.022 47.5015C35.8255 45.589 37.6277 43.3656 39.3867 40.8967C42.4809 40.6307 45.4037 40.1955 48.0546 39.6014C48.9229 43.0055 50.6031 50.905 46.6133 53.1444ZM17.3304 53.1126C13.3577 50.8916 15.1735 43.2641 16.0844 39.72C18.7058 40.2823 21.6077 40.6868 24.7091 40.9306C26.4796 43.3464 28.3341 45.567 30.2029 47.5118C27.894 49.6773 21.3216 55.3439 17.3304 53.1126ZM2.73385 28.5042C2.73385 24.0201 10.5431 21.736 14.206 20.7318C15.007 23.2575 16.0575 25.8983 17.3253 28.5688C16.0411 31.279 14.9755 33.9617 14.1671 36.5172C10.6745 35.5478 2.73385 32.991 2.73385 28.5042ZM17.2879 4.02982C21.2768 1.79114 27.466 7.24323 30.1139 9.69721C28.2547 11.633 26.4173 13.8369 24.662 16.2388C21.6521 16.5093 18.7707 16.9437 16.1218 17.5256C15.128 13.6664 13.3033 6.26608 17.2879 4.02982ZM41.3425 19.1201C43.3845 19.3699 45.341 19.7023 47.178 20.1089C46.6266 21.8228 45.9392 23.615 45.1296 25.4522C43.9561 23.2933 42.6963 21.1777 41.3425 19.1201ZM32.0305 11.5915C33.2915 12.9161 34.5545 14.3952 35.7969 15.9999C33.2768 15.8842 30.7526 15.8838 28.2325 15.9982C29.4761 14.4084 30.7499 12.9314 32.0305 11.5915ZM18.8939 25.4503C18.0977 23.6195 17.4165 21.8194 16.8602 20.0809C18.6863 19.6848 20.6336 19.3609 22.6624 19.1152C21.3047 21.1683 20.0471 23.2831 18.8939 25.4503ZM22.7206 38.0824C20.6249 37.8557 18.648 37.5482 16.8225 37.163C17.3876 35.394 18.0838 33.5551 18.897 31.6848C20.0661 33.8746 21.3429 36.0099 22.7206 38.0824ZM32.1062 45.6041C30.8105 44.2484 29.5179 42.7489 28.2556 41.1361C30.79 41.2325 33.3293 41.2327 35.8635 41.1231C34.6172 42.7653 33.3587 44.267 32.1062 45.6041ZM45.1556 31.5896C46.0111 33.4802 46.7322 35.3091 47.305 37.0482C45.4492 37.4589 43.4458 37.7895 41.3348 38.0351C42.6987 35.9384 43.9785 33.7899 45.1556 31.5896ZM37.8609 38.3563C33.9842 38.6249 30.0834 38.6219 26.2054 38.3783C24.0019 35.2575 22.0403 31.9753 20.3471 28.568C22.0322 25.1677 23.9795 21.8919 26.1726 18.776C30.0533 18.4916 33.958 18.4907 37.8387 18.7777C40.013 21.8934 41.9573 25.1606 43.6815 28.5302C41.9778 31.9288 40.0203 35.2112 37.8609 38.3563ZM46.5713 3.95101C50.5613 6.18235 48.7853 14.1071 47.9136 17.5531C45.2585 16.959 42.375 16.517 39.3564 16.2422C37.5977 13.8143 35.7756 11.6066 33.9465 9.69584C36.6283 7.189 42.6199 1.7415 46.5713 3.95101Z" fill="#4A5568"/>
</svg>
