<svg width="64" height="65" viewBox="0 0 64 65" fill="none" xmlns="http://www.w3.org/2000/svg">
<g id="swift" clip-path="url(#clip0_26_65)">
<path id="Vector" d="M14.208 0.555664H49.664C51.392 0.555664 53.056 0.811664 54.656 1.38766C57.024 2.21966 59.136 3.75566 60.736 5.67566C62.336 7.59566 63.424 10.0277 63.808 12.5237C63.936 13.4197 64 14.3797 64 15.2757V49.8357C64 50.9237 63.936 52.0757 63.744 53.1637C63.232 55.6597 62.08 57.9637 60.352 59.8197C58.688 61.6757 56.448 63.0837 54.08 63.8517C52.608 64.2997 51.136 64.4917 49.6 64.4917C48.896 64.4917 14.08 64.4917 13.568 64.4917C11.008 64.3637 8.51201 63.5317 6.40001 62.1237C4.35201 60.7157 2.62401 58.7957 1.53601 56.4917C0.576009 54.5717 0.128009 52.3957 0.128009 50.2837V14.7637C0.0640093 12.6517 0.512009 10.5397 1.47201 8.61966C2.56001 6.37966 4.22401 4.39566 6.27201 2.98766C8.38401 1.57966 10.88 0.747664 13.44 0.619664C13.696 0.555664 13.952 0.555664 14.208 0.555664Z" fill="#4A5568"/>
<path id="Vector_2" d="M53.952 52.9077C53.696 52.5877 53.504 52.2037 53.184 51.8837C52.544 51.1157 51.84 50.4757 51.008 49.9637C49.984 49.2597 48.832 48.8757 47.616 48.8117C46.784 48.7477 45.888 48.9397 45.12 49.1957C44.352 49.4517 43.52 49.8997 42.816 50.2837C41.92 50.7317 41.088 51.1797 40.128 51.5637C39.04 52.0117 37.888 52.3317 36.736 52.5877C35.264 52.8437 33.792 52.9717 32.256 52.9077C29.568 52.8437 26.88 52.4597 24.384 51.6917C22.144 50.9877 19.968 50.0917 17.984 48.9397C16.192 47.9157 14.592 46.7637 12.992 45.4197C11.712 44.3317 10.56 43.1157 9.472 41.8997C8.704 41.0037 8 40.1077 7.296 39.1477C7.04 38.7637 6.784 38.3797 6.528 37.9957L0 30.8277V14.6997C0 6.89166 6.336 0.555664 14.144 0.555664H26.752L36.096 10.0277C57.216 24.4277 50.368 40.2357 50.368 40.2357C50.368 40.2357 56.384 46.9557 53.952 52.9077Z" fill="#4A5568"/>
<path id="Vector_3" d="M36.16 10.0278C57.28 24.4278 50.432 40.2358 50.432 40.2358C50.432 40.2358 56.448 47.0198 54.016 52.9078C54.016 52.9078 51.52 48.7478 47.424 48.7478C43.456 48.7478 41.088 52.9078 33.024 52.9078C15.104 52.9078 6.65601 37.9318 6.65601 37.9318C22.784 48.5558 33.792 41.0038 33.792 41.0038C26.496 36.7798 11.072 16.5558 11.072 16.5558C24.512 28.0118 30.336 31.0838 30.336 31.0838C26.88 28.2038 17.088 14.1878 17.088 14.1878C24.896 22.0598 40.384 33.1318 40.384 33.1318C44.8 20.9078 36.16 10.0278 36.16 10.0278Z" fill="#070A14"/>
</g>
<defs>
<clipPath id="clip0_26_65">
<rect width="64" height="64" fill="white" transform="translate(0 0.555664)"/>
</clipPath>
</defs>
</svg>
